<svg width="17" height="20" viewBox="0 0 17 20" fill="none" xmlns="http://www.w3.org/2000/svg">
<path fill-rule="evenodd" clip-rule="evenodd" d="M11.2827 3.53179C10.6426 4.30483 9.56755 4.88462 8.70995 4.88462C8.61332 4.88462 8.51669 4.87254 8.45629 4.86046C8.44421 4.81214 8.42006 4.6672 8.42006 4.52225C8.42006 3.53179 8.91529 2.56548 9.45884 1.94946C10.1473 1.14018 11.2948 0.536236 12.249 0.5C12.2732 0.608709 12.2853 0.741577 12.2853 0.874444C12.2853 1.85283 11.8625 2.83121 11.2827 3.53179ZM7.08209 19.1399C6.65164 19.3248 6.24372 19.5 5.69024 19.5C4.50652 19.5 3.68516 18.4129 2.74301 17.0842C1.64383 15.514 0.75 13.0861 0.75 10.7912C0.75 7.09504 3.15369 5.13827 5.52114 5.13827C6.21213 5.13827 6.8435 5.39164 7.40491 5.61693C7.85432 5.79728 8.25889 5.95963 8.61332 5.95963C8.92074 5.95963 9.30387 5.80823 9.75041 5.63177C10.3741 5.38531 11.1215 5.08996 11.9592 5.08996C12.4906 5.08996 14.4353 5.13827 15.7157 6.97425C15.7083 6.97996 15.6927 6.99029 15.6699 7.00535C15.3548 7.21332 13.6743 8.32269 13.6743 10.5979C13.6743 13.4123 16.1264 14.4148 16.2109 14.439C16.2087 14.4444 16.2037 14.4599 16.1958 14.4845C16.1152 14.734 15.7309 15.9232 14.9064 17.1325C14.0971 18.2921 13.2395 19.4758 11.9592 19.4758C11.3281 19.4758 10.926 19.2978 10.5108 19.1139C10.0678 18.9177 9.60981 18.7149 8.84282 18.7149C8.0717 18.7149 7.56285 18.9334 7.08209 19.1399Z" fill="black"/>
</svg>
