<svg width="454" height="120" viewBox="0 0 454 120" fill="none" xmlns="http://www.w3.org/2000/svg">
<path d="M38.64 86L28.63 71.65C28.21 71.6967 27.58 71.72 26.74 71.72H15.68V86H6.58V37H26.74C30.9867 37 34.6733 37.7 37.8 39.1C40.9733 40.5 43.4 42.5067 45.08 45.12C46.76 47.7333 47.6 50.8367 47.6 54.43C47.6 58.1167 46.69 61.29 44.87 63.95C43.0967 66.61 40.53 68.5933 37.17 69.9L48.44 86H38.64ZM38.43 54.43C38.43 51.3033 37.4033 48.9 35.35 47.22C33.2967 45.54 30.2867 44.7 26.32 44.7H15.68V64.23H26.32C30.2867 64.23 33.2967 63.39 35.35 61.71C37.4033 59.9833 38.43 57.5567 38.43 54.43ZM78.8512 86.7C72.0845 86.7 66.8112 84.81 63.0312 81.03C59.2512 77.2033 57.3612 71.7433 57.3612 64.65V37H66.4612V64.3C66.4612 73.9133 70.6145 78.72 78.9212 78.72C87.1812 78.72 91.3112 73.9133 91.3112 64.3V37H100.271V64.65C100.271 71.7433 98.3812 77.2033 94.6012 81.03C90.8678 84.81 85.6178 86.7 78.8512 86.7ZM128.206 86.7C124.426 86.7 120.762 86.1633 117.216 85.09C113.716 84.0167 110.939 82.5933 108.886 80.82L112.036 73.75C114.042 75.3367 116.492 76.6433 119.386 77.67C122.326 78.65 125.266 79.14 128.206 79.14C131.846 79.14 134.552 78.5567 136.326 77.39C138.146 76.2233 139.056 74.6833 139.056 72.77C139.056 71.37 138.542 70.2267 137.516 69.34C136.536 68.4067 135.276 67.6833 133.736 67.17C132.196 66.6567 130.096 66.0733 127.436 65.42C123.702 64.5333 120.669 63.6467 118.336 62.76C116.049 61.8733 114.066 60.4967 112.386 58.63C110.752 56.7167 109.936 54.15 109.936 50.93C109.936 48.2233 110.659 45.7733 112.106 43.58C113.599 41.34 115.816 39.5667 118.756 38.26C121.742 36.9533 125.382 36.3 129.676 36.3C132.662 36.3 135.602 36.6733 138.496 37.42C141.389 38.1667 143.886 39.24 145.986 40.64L143.116 47.71C140.969 46.45 138.729 45.4933 136.396 44.84C134.062 44.1867 131.799 43.86 129.606 43.86C126.012 43.86 123.329 44.4667 121.556 45.68C119.829 46.8933 118.966 48.5033 118.966 50.51C118.966 51.91 119.456 53.0533 120.436 53.94C121.462 54.8267 122.746 55.5267 124.286 56.04C125.826 56.5533 127.926 57.1367 130.586 57.79C134.226 58.63 137.212 59.5167 139.546 60.45C141.879 61.3367 143.862 62.7133 145.496 64.58C147.176 66.4467 148.016 68.9667 148.016 72.14C148.016 74.8467 147.269 77.2967 145.776 79.49C144.329 81.6833 142.112 83.4333 139.126 84.74C136.139 86.0467 132.499 86.7 128.206 86.7ZM200.579 37V86H191.479V65H166.139V86H157.039V37H166.139V57.23H191.479V37H200.579Z" fill="#793AFF"/>
<path d="M359.36 74.66H334.86L330.03 86H320.65L342.7 37H351.66L373.78 86H364.26L359.36 74.66ZM356.35 67.52L347.11 46.1L337.94 67.52H356.35ZM380.012 37H389.112V86H380.012V37ZM402.365 37H423.785C429.012 37 433.655 38.0267 437.715 40.08C441.775 42.0867 444.925 44.9567 447.165 48.69C449.405 52.3767 450.525 56.6467 450.525 61.5C450.525 66.3533 449.405 70.6467 447.165 74.38C444.925 78.0667 441.775 80.9367 437.715 82.99C433.655 84.9967 429.012 86 423.785 86H402.365V37ZM423.365 78.3C426.958 78.3 430.108 77.6233 432.815 76.27C435.568 74.87 437.668 72.91 439.115 70.39C440.608 67.8233 441.355 64.86 441.355 61.5C441.355 58.14 440.608 55.2 439.115 52.68C437.668 50.1133 435.568 48.1533 432.815 46.8C430.108 45.4 426.958 44.7 423.365 44.7H411.465V78.3H423.365Z" fill="#793AFF"/>
<path d="M286.164 29L262.805 44.6667L239.447 29L211 48.0833V87.1667H221.261V54.5833L239.447 42.3333L257.717 54.5V87.1667H267.978V54.5L286.164 42.3333L304.433 54.5833V87.1667H314.694V48.0833L286.164 29Z" fill="url(#paint0_radial)"/>
<path d="M238.696 60.667H232.689V66.667H238.696V60.667Z" fill="url(#paint1_linear)"/>
<path d="M238.696 68.667H232.689V74.667H238.696V68.667Z" fill="url(#paint2_linear)"/>
<path d="M246.288 60.667H240.281V66.667H246.288V60.667Z" fill="url(#paint3_linear)"/>
<path d="M246.288 68.667H240.281V74.667H246.288V68.667Z" fill="url(#paint4_linear)"/>
<path d="M285.33 60.667H279.323V66.667H285.33V60.667Z" fill="url(#paint5_linear)"/>
<path d="M285.33 68.667H279.323V74.667H285.33V68.667Z" fill="url(#paint6_linear)"/>
<path d="M293.004 60.667H286.998V66.667H293.004V60.667Z" fill="url(#paint7_linear)"/>
<path d="M293.004 68.667H286.998V74.667H293.004V68.667Z" fill="url(#paint8_linear)"/>
<defs>
<radialGradient id="paint0_radial" cx="0" cy="0" r="1" gradientUnits="userSpaceOnUse" gradientTransform="translate(262.835 58.0786) scale(42.0463 42.0013)">
<stop stop-color="#B4B2F1"/>
<stop offset="0.166" stop-color="#B2ADF2"/>
<stop offset="0.3514" stop-color="#ABA0F3"/>
<stop offset="0.5461" stop-color="#A08AF6"/>
<stop offset="0.7473" stop-color="#916AF9"/>
<stop offset="0.9516" stop-color="#7D43FE"/>
<stop offset="1" stop-color="#7838FF"/>
</radialGradient>
<linearGradient id="paint1_linear" x1="232.658" y1="63.6353" x2="238.644" y2="63.6353" gradientUnits="userSpaceOnUse">
<stop stop-color="#B4B2F1"/>
<stop offset="1" stop-color="#7838FF"/>
</linearGradient>
<linearGradient id="paint2_linear" x1="232.658" y1="71.6417" x2="238.644" y2="71.6417" gradientUnits="userSpaceOnUse">
<stop stop-color="#B4B2F1"/>
<stop offset="1" stop-color="#7838FF"/>
</linearGradient>
<linearGradient id="paint3_linear" x1="240.303" y1="63.6353" x2="246.289" y2="63.6353" gradientUnits="userSpaceOnUse">
<stop stop-color="#7838FF"/>
<stop offset="0.6929" stop-color="#A18CF5"/>
<stop offset="1" stop-color="#B4B2F1"/>
</linearGradient>
<linearGradient id="paint4_linear" x1="240.303" y1="71.6417" x2="246.289" y2="71.6417" gradientUnits="userSpaceOnUse">
<stop stop-color="#7838FF"/>
<stop offset="0.3071" stop-color="#8B5EFB"/>
<stop offset="1" stop-color="#B4B2F1"/>
</linearGradient>
<linearGradient id="paint5_linear" x1="279.313" y1="63.6353" x2="285.298" y2="63.6353" gradientUnits="userSpaceOnUse">
<stop stop-color="#B4B2F1"/>
<stop offset="1" stop-color="#7838FF"/>
</linearGradient>
<linearGradient id="paint6_linear" x1="279.313" y1="71.6417" x2="285.298" y2="71.6417" gradientUnits="userSpaceOnUse">
<stop stop-color="#B4B2F1"/>
<stop offset="0.3674" stop-color="#9F88F6"/>
<stop offset="1" stop-color="#7838FF"/>
</linearGradient>
<linearGradient id="paint7_linear" x1="286.957" y1="63.6353" x2="292.942" y2="63.6353" gradientUnits="userSpaceOnUse">
<stop stop-color="#7838FF"/>
<stop offset="0.6929" stop-color="#A18CF5"/>
<stop offset="1" stop-color="#B4B2F1"/>
</linearGradient>
<linearGradient id="paint8_linear" x1="286.957" y1="71.6417" x2="292.942" y2="71.6417" gradientUnits="userSpaceOnUse">
<stop stop-color="#7838FF"/>
<stop offset="0.2113" stop-color="#824DFD"/>
<stop offset="0.6441" stop-color="#9C82F7"/>
<stop offset="1" stop-color="#B4B2F1"/>
</linearGradient>
</defs>
</svg>
