<svg width="31" height="31" viewBox="0 0 31 31" fill="none" xmlns="http://www.w3.org/2000/svg">
<path d="M15.4997 2.5835C8.36967 2.5835 2.58301 8.37016 2.58301 15.5002C2.58301 22.6302 8.36967 28.4168 15.4997 28.4168C22.6297 28.4168 28.4163 22.6302 28.4163 15.5002C28.4163 8.37016 22.6297 2.5835 15.4997 2.5835ZM9.13176 23.6118C9.68718 22.4493 13.0713 21.3127 15.4997 21.3127C17.928 21.3127 21.3251 22.4493 21.8676 23.6118C20.1109 25.0068 17.9022 25.8335 15.4997 25.8335C13.0972 25.8335 10.8884 25.0068 9.13176 23.6118ZM23.7147 21.7389C21.8676 19.4914 17.3855 18.7293 15.4997 18.7293C13.6138 18.7293 9.13176 19.4914 7.28467 21.7389C5.96717 20.0081 5.16634 17.851 5.16634 15.5002C5.16634 9.80391 9.80343 5.16683 15.4997 5.16683C21.1959 5.16683 25.833 9.80391 25.833 15.5002C25.833 17.851 25.0322 20.0081 23.7147 21.7389ZM15.4997 7.75016C12.9938 7.75016 10.9788 9.76516 10.9788 12.271C10.9788 14.7768 12.9938 16.7918 15.4997 16.7918C18.0055 16.7918 20.0205 14.7768 20.0205 12.271C20.0205 9.76516 18.0055 7.75016 15.4997 7.75016ZM15.4997 14.2085C14.4276 14.2085 13.5622 13.3431 13.5622 12.271C13.5622 11.1989 14.4276 10.3335 15.4997 10.3335C16.5718 10.3335 17.4372 11.1989 17.4372 12.271C17.4372 13.3431 16.5718 14.2085 15.4997 14.2085Z" fill="url(#paint0_linear)"/>
<defs>
<linearGradient id="paint0_linear" x1="-10.3337" y1="15.5002" x2="15.4997" y2="41.3335" gradientUnits="userSpaceOnUse">
<stop stop-color="#B4B2F1"/>
<stop offset="1" stop-color="#7838FF"/>
</linearGradient>
</defs>
</svg>
