<svg width="29" height="29" viewBox="0 0 29 29" fill="none" xmlns="http://www.w3.org/2000/svg">
<g clip-path="url(#clip0)">
<path d="M28.685 22.3804C28.685 21.1492 27.8921 20.1093 26.7937 19.7177V17.6522H27.7394C28.2615 17.6522 28.6851 17.2285 28.6851 16.7065C28.6851 16.1844 28.2615 15.7608 27.7394 15.7608H24.9024V2.83696C24.9024 1.2726 23.6298 0 22.0654 0H6.93502C5.37066 0 4.09806 1.2726 4.09806 2.83696V15.7609H1.2611C0.739045 15.7609 0.31543 16.1845 0.31543 16.7065C0.31543 17.2286 0.739045 17.6522 1.2611 17.6522H2.20677V19.7178C1.10846 20.1094 0.315486 21.1493 0.315486 22.3805C0.315486 23.6116 1.10846 24.6515 2.20677 25.0431V27.1087H1.2611C0.739045 27.1087 0.31543 27.5323 0.31543 28.0544C0.31543 28.5764 0.739045 29.0001 1.2611 29.0001H27.7393C28.2614 29.0001 28.685 28.5764 28.685 28.0544C28.685 27.5323 28.2614 27.1087 27.7393 27.1087H26.7937V25.0431C27.8921 24.6515 28.685 23.6117 28.685 22.3804ZM9.77198 19.7177C8.67366 20.1093 7.88069 21.1492 7.88069 22.3804C7.88069 23.6116 8.67366 24.6515 9.77198 25.0431V27.1087H7.88064V26.163C7.88064 25.6409 7.45702 25.2173 6.93496 25.2173C6.41291 25.2173 5.98929 25.6409 5.98929 26.163V27.1087H4.09806V25.0431C5.19638 24.6515 5.98935 23.6116 5.98935 22.3804C5.98935 21.1492 5.19638 20.1093 4.09806 19.7177V17.6522C4.78245 17.6522 5.30496 17.6522 5.98935 17.6522V18.5978C5.98935 19.1199 6.41296 19.5435 6.93502 19.5435C7.45708 19.5435 7.88069 19.1199 7.88069 18.5978V17.6522C8.56508 17.6522 9.08759 17.6522 9.77198 17.6522V19.7177ZM9.77198 15.7609H7.88064V4.72825C7.88064 4.20619 8.30425 3.78257 8.82631 3.78257H20.1741C20.6962 3.78257 21.1198 4.20619 21.1198 4.72825V15.7609H19.2285V11.3478H15.4459V15.7609H13.5546V11.3478H9.77198V15.7609ZM17.3372 19.7177C16.2389 20.1093 15.4459 21.1492 15.4459 22.3804C15.4459 23.6116 16.2389 24.6515 17.3372 25.0431V27.1087H15.4459V26.163C15.4459 25.6409 15.0223 25.2173 14.5002 25.2173C13.9782 25.2173 13.5546 25.6409 13.5546 26.163V27.1087H11.6633V25.0431C12.7616 24.6515 13.5546 23.6116 13.5546 22.3804C13.5546 21.1492 12.7616 20.1093 11.6633 19.7177V17.6522H17.3372V19.7177ZM24.9024 19.7177C23.8041 20.1093 23.0111 21.1492 23.0111 22.3804C23.0111 23.6116 23.8041 24.6515 24.9024 25.0431V27.1087H23.0111V26.163C23.0111 25.6409 22.5875 25.2173 22.0654 25.2173C21.5434 25.2173 21.1198 25.6409 21.1198 26.163V27.1087H19.2285V25.0431C20.3268 24.6515 21.1198 23.6116 21.1198 22.3804C21.1198 21.1492 20.3268 20.1093 19.2285 19.7177V17.6522C19.9129 17.6522 20.4354 17.6522 21.1198 17.6522V18.5978C21.1198 19.1199 21.5434 19.5435 22.0654 19.5435C22.5875 19.5435 23.0111 19.1199 23.0111 18.5978V17.6522C23.6955 17.6522 24.218 17.6522 24.9024 17.6522V19.7177Z" fill="url(#paint0_linear)"/>
<path d="M13.5541 5.67383H9.77148V9.45646H13.5541V5.67383Z" fill="url(#paint1_linear)"/>
<path d="M19.2279 5.67383H15.4453V9.45646H19.2279V5.67383Z" fill="url(#paint2_linear)"/>
</g>
<defs>
<linearGradient id="paint0_linear" x1="-13.8694" y1="14.5" x2="15.1237" y2="42.8628" gradientUnits="userSpaceOnUse">
<stop stop-color="#B4B2F1"/>
<stop offset="1" stop-color="#7838FF"/>
</linearGradient>
<linearGradient id="paint1_linear" x1="7.88017" y1="7.56515" x2="11.6628" y2="11.3478" gradientUnits="userSpaceOnUse">
<stop stop-color="#B4B2F1"/>
<stop offset="1" stop-color="#7838FF"/>
</linearGradient>
<linearGradient id="paint2_linear" x1="13.554" y1="7.56515" x2="17.3366" y2="11.3478" gradientUnits="userSpaceOnUse">
<stop stop-color="#B4B2F1"/>
<stop offset="1" stop-color="#7838FF"/>
</linearGradient>
<clipPath id="clip0">
<rect width="29" height="29" fill="white"/>
</clipPath>
</defs>
</svg>
