<svg width="36" height="33" viewBox="0 0 36 33" fill="none" xmlns="http://www.w3.org/2000/svg">
<path fill-rule="evenodd" clip-rule="evenodd" d="M34.7811 16.9748H33.8035V5.1572C33.8035 2.78384 31.6814 0.859863 29.0636 0.859863H27.2861C26.9589 0.859863 26.6936 1.10033 26.6936 1.39701V4.13655C25.3141 4.39187 24.3234 5.49216 24.3237 6.76864C24.3237 7.06531 24.5889 7.30578 24.9162 7.30578H29.6561C29.9834 7.30578 30.2486 7.06531 30.2486 6.76864C30.2489 5.49216 29.2582 4.39181 27.8787 4.13655V1.93421H29.0637C31.027 1.93421 32.6186 3.37719 32.6186 5.1572V16.9748H0.83112C0.389386 16.9748 0.03125 17.2995 0.03125 17.7V18.3983C0.03125 18.7988 0.389386 19.1235 0.83112 19.1235H34.7811C35.2229 19.1235 35.581 18.7988 35.581 18.3983V17.7C35.581 17.2995 35.2229 16.9748 34.7811 16.9748ZM24.9161 9.99169C25.2433 9.99169 25.5085 9.75122 25.5085 9.45454V8.91734C25.5085 8.62066 25.2433 8.38019 24.9161 8.38019C24.5888 8.38019 24.3236 8.62066 24.3236 8.91734V9.45448C24.3236 9.75116 24.5888 9.99169 24.9161 9.99169ZM27.2861 9.99169C27.6133 9.99169 27.8786 9.75122 27.8786 9.45454V8.91734C27.8786 8.62066 27.6133 8.38019 27.2861 8.38019C26.9589 8.38019 26.6936 8.62066 26.6936 8.91734V9.45448C26.6936 9.75116 26.9589 9.99169 27.2861 9.99169ZM26.6936 12.1403C26.6936 12.437 26.9589 12.6775 27.286 12.6775C27.6133 12.6775 27.8785 12.437 27.8785 12.1403V11.6032C27.8785 11.3065 27.6132 11.066 27.286 11.066C26.9588 11.066 26.6936 11.3065 26.6936 11.6032V12.1403ZM27.286 15.3633C26.9589 15.3633 26.6936 15.1228 26.6936 14.8262V14.289C26.6936 13.9924 26.9588 13.7519 27.286 13.7519C27.6132 13.7519 27.8785 13.9923 27.8785 14.289V14.8262C27.8785 15.1228 27.6133 15.3633 27.286 15.3633ZM25.5085 12.1403C25.5085 12.437 25.2433 12.6775 24.9161 12.6775C24.5888 12.6775 24.3236 12.437 24.3236 12.1403V11.6032C24.3236 11.3065 24.5888 11.066 24.9161 11.066C25.2433 11.066 25.5085 11.3065 25.5085 11.6032V12.1403ZM24.9161 15.3633C25.2433 15.3633 25.5085 15.1228 25.5085 14.8262V14.289C25.5085 13.9923 25.2433 13.7519 24.9161 13.7519C24.5888 13.7519 24.3236 13.9924 24.3236 14.289V14.8262C24.3236 15.1228 24.5888 15.3633 24.9161 15.3633ZM30.2485 9.45454C30.2485 9.75122 29.9833 9.99169 29.6561 9.99169C29.3288 9.99169 29.0636 9.75116 29.0636 9.45448V8.91734C29.0636 8.62066 29.3288 8.38019 29.6561 8.38019C29.9833 8.38019 30.2485 8.62066 30.2485 8.91734V9.45454ZM29.0636 12.1403C29.0636 12.437 29.3288 12.6775 29.6561 12.6775C29.9833 12.6775 30.2485 12.437 30.2485 12.1403V11.6032C30.2485 11.3065 29.9833 11.066 29.6561 11.066C29.3288 11.066 29.0636 11.3065 29.0636 11.6032V12.1403ZM29.6561 15.3633C29.3288 15.3633 29.0636 15.1228 29.0636 14.8262V14.289C29.0636 13.9924 29.3288 13.7519 29.6561 13.7519C29.9833 13.7519 30.2485 13.9923 30.2485 14.289V14.8262C30.2485 15.1228 29.9833 15.3633 29.6561 15.3633ZM2.13466 20.1978H33.4777C33.631 20.2057 33.7533 20.3167 33.762 20.4556C33.5487 24.2802 31.7179 28.2391 29.022 29.4585C29.2513 29.682 29.4254 29.9473 29.5328 30.2366C29.9503 31.3613 29.2831 32.5799 28.0425 32.9583C26.802 33.3368 25.4579 32.7319 25.0404 31.6072C24.8253 31.0275 24.9011 30.3915 25.2478 29.8668H10.3466C10.8778 30.6878 10.75 31.7278 10.0324 32.4226C9.13776 33.2887 7.638 33.3335 6.68253 32.5224C5.72713 31.7113 5.67776 30.3516 6.57241 29.4854C3.89437 28.266 2.06356 24.3071 1.83249 20.4825L1.83228 20.4716C1.83235 20.3202 1.96774 20.1977 2.13466 20.1978Z" fill="url(#paint0_linear)"/>
<defs>
<linearGradient id="paint0_linear" x1="-17.7436" y1="16.9812" x2="14.3461" y2="52.3622" gradientUnits="userSpaceOnUse">
<stop stop-color="#B4B2F1"/>
<stop offset="1" stop-color="#7838FF"/>
</linearGradient>
</defs>
</svg>
