<svg width="37" height="33" viewBox="0 0 37 33" fill="none" xmlns="http://www.w3.org/2000/svg">
<path fill-rule="evenodd" clip-rule="evenodd" d="M7.92311 15.3682H16.0336C16.9288 15.3682 17.6554 14.7216 17.6554 13.9244V7.64726C17.6554 6.84976 16.9288 6.20361 16.0336 6.20361H7.92311C7.02627 6.20361 6.29985 6.84976 6.29985 7.64726V13.9244C6.29985 14.7216 7.02627 15.3682 7.92311 15.3682ZM20.4947 15.3682H28.6052C29.502 15.3682 30.2285 14.7216 30.2285 13.9244V7.64726C30.2285 6.84976 29.502 6.20361 28.6052 6.20361H20.4947C19.5995 6.20361 18.8729 6.84976 18.8729 7.64726V13.9244C18.8728 14.7216 19.5993 15.3682 20.4947 15.3682ZM31.2421 13.6732C31.2421 12.4773 32.3303 11.5079 33.6748 11.5079C35.0186 11.5079 36.1083 12.4773 36.1084 13.6732V23.0574C36.1084 24.2533 35.0186 25.2227 33.6749 25.2227H32.864C32.864 26.0202 32.1375 26.6664 31.2423 26.6664C30.3454 26.6664 29.6196 26.0202 29.6196 25.2227H6.90869C6.90869 26.0202 6.1829 26.6664 5.28606 26.6664C4.39085 26.6664 3.66431 26.0202 3.66431 25.2227H2.85337C1.50961 25.2227 0.419922 24.2531 0.419922 23.0574V13.6732C0.419922 12.4773 1.50973 11.5079 2.85337 11.5079C4.198 11.5079 5.28606 12.4774 5.28606 13.6732V17.062C5.80648 16.746 6.43385 16.5605 7.11155 16.5605H29.4166C30.0943 16.5605 30.7217 16.746 31.2421 17.062V13.6732Z" fill="url(#paint0_linear)"/>
<defs>
<linearGradient id="paint0_linear" x1="-17.4243" y1="16.435" x2="0.235443" y2="47.2349" gradientUnits="userSpaceOnUse">
<stop stop-color="#B4B2F1"/>
<stop offset="1" stop-color="#7838FF"/>
</linearGradient>
</defs>
</svg>
