<svg width="37" height="37" viewBox="0 0 37 37" fill="none" xmlns="http://www.w3.org/2000/svg">
<path fill-rule="evenodd" clip-rule="evenodd" d="M35.9605 23.339L32.0498 17.1824V5.8569L30.4579 4.27393H6.07876L4.48687 5.8569V17.1823L0.576196 23.339H35.9605ZM28.866 7.43987V15.3422C26.8145 14.8145 23.2704 14.1638 18.2683 14.1638C13.2663 14.1638 9.72217 14.8145 7.67064 15.3422V7.43987H28.866ZM0.504883 28.4529V25.287H36.0319V28.4529H32.3224V32.8126H29.1386V28.4529H7.39802V32.8126H4.21425V28.4529H0.504883ZM16.9764 12.5167V10.6724C16.9764 9.57769 15.3786 8.68996 13.4078 8.68996C11.437 8.68996 9.83933 9.57769 9.83933 10.6724V13.4407C9.83933 13.4407 11.9443 12.9137 13.3911 12.7775C14.6936 12.6547 16.9764 12.5167 16.9764 12.5167ZM26.6974 10.6724V13.4407C26.6974 13.4407 24.5926 12.9137 23.1457 12.7775C21.8432 12.6546 19.5603 12.5167 19.5603 12.5167V10.6724C19.5603 9.57769 21.158 8.68996 23.1289 8.68996C25.0997 8.68996 26.6974 9.57769 26.6974 10.6724Z" fill="url(#paint0_linear)"/>
<defs>
<linearGradient id="paint0_linear" x1="-17.2586" y1="18.5433" x2="10.6089" y2="53.2348" gradientUnits="userSpaceOnUse">
<stop stop-color="#B4B2F1"/>
<stop offset="1" stop-color="#7838FF"/>
</linearGradient>
</defs>
</svg>
