<svg width="33" height="33" viewBox="0 0 33 33" fill="none" xmlns="http://www.w3.org/2000/svg">
<path d="M22 15.125H20.625V4.125C20.625 2.6125 19.3875 1.375 17.875 1.375H15.125C13.6125 1.375 12.375 2.6125 12.375 4.125V15.125H11C7.205 15.125 4.125 18.205 4.125 22V31.625H28.875V22C28.875 18.205 25.795 15.125 22 15.125ZM15.125 4.125H17.875V15.125H15.125V4.125ZM26.125 28.875H23.375V24.75C23.375 23.9937 22.7563 23.375 22 23.375C21.2437 23.375 20.625 23.9937 20.625 24.75V28.875H17.875V24.75C17.875 23.9937 17.2563 23.375 16.5 23.375C15.7437 23.375 15.125 23.9937 15.125 24.75V28.875H12.375V24.75C12.375 23.9937 11.7562 23.375 11 23.375C10.2438 23.375 9.625 23.9937 9.625 24.75V28.875H6.875V22C6.875 19.7313 8.73125 17.875 11 17.875H22C24.2687 17.875 26.125 19.7313 26.125 22V28.875Z" fill="url(#paint0_linear)"/>
<defs>
<linearGradient id="paint0_linear" x1="-8.25" y1="16.5" x2="21.401" y2="40.7599" gradientUnits="userSpaceOnUse">
<stop stop-color="#B4B2F1"/>
<stop offset="1" stop-color="#7838FF"/>
</linearGradient>
</defs>
</svg>
