<svg width="30" height="30" viewBox="0 0 30 30" fill="none" xmlns="http://www.w3.org/2000/svg">
<path d="M8.75 13.75H11.25V16.25H8.75V13.75ZM26.25 7.5V25C26.25 26.375 25.125 27.5 23.75 27.5H6.25C4.8625 27.5 3.75 26.375 3.75 25L3.7625 7.5C3.7625 6.125 4.8625 5 6.25 5H7.5V2.5H10V5H20V2.5H22.5V5H23.75C25.125 5 26.25 6.125 26.25 7.5ZM6.25 10H23.75V7.5H6.25V10ZM23.75 25V12.5H6.25V25H23.75ZM18.75 16.25H21.25V13.75H18.75V16.25ZM13.75 16.25H16.25V13.75H13.75V16.25Z" fill="url(#paint0_linear)"/>
<defs>
<linearGradient id="paint0_linear" x1="-7.5" y1="15" x2="17.3619" y2="37.3757" gradientUnits="userSpaceOnUse">
<stop stop-color="#B4B2F1"/>
<stop offset="1" stop-color="#7838FF"/>
</linearGradient>
</defs>
</svg>
