<svg width="19" height="14" viewBox="0 0 19 14" fill="none" xmlns="http://www.w3.org/2000/svg">
<mask id="path-1-inside-1" fill="white">
<path fill-rule="evenodd" clip-rule="evenodd" d="M3.50139 3.83201L7.87875 8.12321L16.0625 0.135254L18.727 2.77314L7.87875 13.3247L0.836914 6.45132L3.50139 3.81343V3.83201Z"/>
</mask>
<path d="M3.50139 3.83201H-2.49861V6.35229L-0.69888 8.1166L3.50139 3.83201ZM7.87875 8.12321L3.67847 12.4078L7.86964 16.5165L12.0697 12.4169L7.87875 8.12321ZM16.0625 0.135254L20.2838 -4.12861L16.0923 -8.27826L11.8715 -4.15844L16.0625 0.135254ZM18.727 2.77314L22.9104 7.07419L27.2934 2.81104L22.9483 -1.49073L18.727 2.77314ZM7.87875 13.3247L3.68778 17.6184L7.87139 21.7019L12.0622 17.6257L7.87875 13.3247ZM0.836914 6.45132L-3.3844 2.18745L-7.7219 6.48166L-3.35405 10.745L0.836914 6.45132ZM3.50139 3.81343H9.50139V-10.5697L-0.71992 -0.450433L3.50139 3.81343ZM-0.69888 8.1166L3.67847 12.4078L12.079 3.83862L7.70166 -0.452585L-0.69888 8.1166ZM12.0697 12.4169L20.2535 4.42894L11.8715 -4.15844L3.68778 3.82952L12.0697 12.4169ZM11.8412 4.39912L14.5057 7.037L22.9483 -1.49073L20.2838 -4.12861L11.8412 4.39912ZM14.5436 -1.52791L3.69533 9.02363L12.0622 17.6257L22.9104 7.07419L14.5436 -1.52791ZM12.0697 9.03098L5.02788 2.15762L-3.35405 10.745L3.68778 17.6184L12.0697 9.03098ZM5.05822 10.7152L7.7227 8.0773L-0.71992 -0.450433L-3.3844 2.18745L5.05822 10.7152ZM-2.49861 3.81343V3.83201H9.50139V3.81343H-2.49861Z" fill="url(#paint0_linear)" mask="url(#path-1-inside-1)"/>
<defs>
<linearGradient id="paint0_linear" x1="-8.10811" y1="6.72997" x2="4.49138" y2="23.8198" gradientUnits="userSpaceOnUse">
<stop stop-color="#B4B2F1"/>
<stop offset="1" stop-color="#7838FF"/>
</linearGradient>
</defs>
</svg>
