<svg width="36" height="36" viewBox="0 0 36 36" fill="none" xmlns="http://www.w3.org/2000/svg">
<path d="M14.25 18C14.25 18.825 13.575 19.5 12.75 19.5C11.925 19.5 11.25 18.825 11.25 18C11.25 17.175 11.925 16.5 12.75 16.5C13.575 16.5 14.25 17.175 14.25 18ZM20.625 15C21.45 15 22.125 14.325 22.125 13.5C22.125 12.675 21.45 12 20.625 12C19.8 12 19.125 12.675 19.125 13.5C19.125 14.325 19.8 15 20.625 15ZM15.375 15C16.2 15 16.875 14.325 16.875 13.5C16.875 12.675 16.2 12 15.375 12C14.55 12 13.875 12.675 13.875 13.5C13.875 14.325 14.55 15 15.375 15ZM15.375 21C14.55 21 13.875 21.675 13.875 22.5C13.875 23.325 14.55 24 15.375 24C16.2 24 16.875 23.325 16.875 22.5C16.875 21.675 16.2 21 15.375 21ZM33 16.875V19.125C33 19.74 32.49 20.25 31.875 20.25C31.26 20.25 30.75 19.74 30.75 19.125H28.44C28.215 21.18 27.405 23.07 26.16 24.6L27.795 26.235L27.81 26.22C28.245 25.785 28.965 25.785 29.4 26.22C29.835 26.655 29.835 27.375 29.4 27.81L27.81 29.4C27.375 29.835 26.655 29.835 26.22 29.4C25.785 28.965 25.785 28.26 26.205 27.825L24.57 26.19C23.04 27.42 21.165 28.23 19.11 28.455V30.765H19.125C19.74 30.765 20.25 31.275 20.25 31.89C20.25 32.505 19.74 33.015 19.125 33.015H16.875C16.26 33.015 15.75 32.505 15.75 31.89C15.75 31.275 16.245 30.78 16.86 30.765V28.44C14.805 28.215 12.93 27.405 11.415 26.175L9.78 27.81L9.795 27.825C10.23 28.26 10.23 28.98 9.795 29.415C9.36 29.85 8.64 29.85 8.205 29.415L6.6 27.81C6.165 27.375 6.165 26.655 6.6 26.22C7.035 25.785 7.74 25.785 8.175 26.205L9.81 24.57C8.58 23.04 7.77 21.18 7.56 19.125H5.25C5.25 19.74 4.74 20.25 4.125 20.25C3.51 20.25 3 19.74 3 19.125V16.875C3 16.26 3.51 15.75 4.125 15.75C4.74 15.75 5.25 16.26 5.25 16.875H7.56C7.785 14.82 8.595 12.96 9.81 11.43L8.175 9.795C7.74 10.215 7.035 10.215 6.6 9.78C6.165 9.345 6.165 8.625 6.6 8.19L8.19 6.6C8.625 6.165 9.345 6.165 9.78 6.6C10.215 7.035 10.215 7.755 9.78 8.19L9.765 8.205L11.4 9.84C12.93 8.61 14.79 7.8 16.845 7.575V5.25C16.23 5.235 15.735 4.74 15.735 4.125C15.75 3.51 16.26 3 16.875 3H19.125C19.74 3 20.25 3.51 20.25 4.125C20.25 4.74 19.74 5.25 19.125 5.25H19.11V7.56C21.165 7.77 23.04 8.595 24.57 9.825L26.205 8.19C25.77 7.755 25.785 7.05 26.22 6.615C26.655 6.18 27.375 6.18 27.81 6.615L29.4 8.205C29.835 8.64 29.835 9.36 29.4 9.795C28.965 10.23 28.245 10.23 27.81 9.795L27.795 9.78L26.16 11.4C27.39 12.93 28.215 14.805 28.44 16.875H30.75C30.75 16.26 31.26 15.75 31.875 15.75C32.49 15.75 33 16.26 33 16.875ZM25.5 18C25.5 13.86 22.14 10.5 18 10.5C13.86 10.5 10.5 13.86 10.5 18C10.5 22.14 13.86 25.5 18 25.5C22.14 25.5 25.5 22.14 25.5 18ZM18 16.5C17.175 16.5 16.5 17.175 16.5 18C16.5 18.825 17.175 19.5 18 19.5C18.825 19.5 19.5 18.825 19.5 18C19.5 17.175 18.825 16.5 18 16.5ZM23.25 16.5C22.425 16.5 21.75 17.175 21.75 18C21.75 18.825 22.425 19.5 23.25 19.5C24.075 19.5 24.75 18.825 24.75 18C24.75 17.175 24.075 16.5 23.25 16.5ZM20.625 21C19.8 21 19.125 21.675 19.125 22.5C19.125 23.325 19.8 24 20.625 24C21.45 24 22.125 23.325 22.125 22.5C22.125 21.675 21.45 21 20.625 21Z" fill="url(#paint0_linear)"/>
<defs>
<linearGradient id="paint0_linear" x1="-12" y1="18.0075" x2="18.015" y2="48.0075" gradientUnits="userSpaceOnUse">
<stop stop-color="#B4B2F1"/>
<stop offset="1" stop-color="#7838FF"/>
</linearGradient>
</defs>
</svg>
