<svg width="94" height="94" viewBox="0 0 94 94" fill="none" xmlns="http://www.w3.org/2000/svg">
<path d="M37.208 47.0002C37.208 49.1543 35.4455 50.9168 33.2913 50.9168C31.1372 50.9168 29.3747 49.1543 29.3747 47.0002C29.3747 44.846 31.1372 43.0835 33.2913 43.0835C35.4455 43.0835 37.208 44.846 37.208 47.0002ZM53.8538 39.1668C56.008 39.1668 57.7705 37.4043 57.7705 35.2502C57.7705 33.096 56.008 31.3335 53.8538 31.3335C51.6997 31.3335 49.9372 33.096 49.9372 35.2502C49.9372 37.4043 51.6997 39.1668 53.8538 39.1668ZM40.1455 39.1668C42.2997 39.1668 44.0622 37.4043 44.0622 35.2502C44.0622 33.096 42.2997 31.3335 40.1455 31.3335C37.9913 31.3335 36.2288 33.096 36.2288 35.2502C36.2288 37.4043 37.9913 39.1668 40.1455 39.1668ZM40.1455 54.8335C37.9913 54.8335 36.2288 56.596 36.2288 58.7502C36.2288 60.9043 37.9913 62.6668 40.1455 62.6668C42.2997 62.6668 44.0622 60.9043 44.0622 58.7502C44.0622 56.596 42.2997 54.8335 40.1455 54.8335ZM86.1664 44.0627V49.9377C86.1664 51.5435 84.8347 52.8752 83.2289 52.8752C81.623 52.8752 80.2914 51.5435 80.2914 49.9377H74.2597C73.6722 55.3035 71.5572 60.2385 68.3064 64.2335L72.5755 68.5027L72.6147 68.4635C73.7505 67.3277 75.6305 67.3277 76.7663 68.4635C77.9022 69.5993 77.9022 71.4793 76.7663 72.6152L72.6147 76.7668C71.4789 77.9027 69.5988 77.9027 68.463 76.7668C67.3272 75.631 67.3272 73.7902 68.4238 72.6543L64.1547 68.3852C60.1597 71.5968 55.2638 73.7118 49.898 74.2993V80.331H49.9372C51.543 80.331 52.8747 81.6627 52.8747 83.2685C52.8747 84.8743 51.543 86.206 49.9372 86.206H44.0622C42.4563 86.206 41.1247 84.8743 41.1247 83.2685C41.1247 81.6627 42.4172 80.3702 44.023 80.331V74.2602C38.6572 73.6727 33.7613 71.5577 29.8055 68.346L25.5363 72.6152L25.5755 72.6543C26.7113 73.7902 26.7113 75.6702 25.5755 76.806C24.4397 77.9418 22.5597 77.9418 21.4238 76.806L17.233 72.6152C16.0972 71.4793 16.0972 69.5993 17.233 68.4635C18.3688 67.3277 20.2097 67.3277 21.3455 68.4243L25.6147 64.1552C22.403 60.1602 20.288 55.3035 19.7397 49.9377H13.708C13.708 51.5435 12.3763 52.8752 10.7705 52.8752C9.16467 52.8752 7.83301 51.5435 7.83301 49.9377V44.0627C7.83301 42.4568 9.16467 41.1252 10.7705 41.1252C12.3763 41.1252 13.708 42.4568 13.708 44.0627H19.7397C20.3272 38.6968 22.4422 33.8402 25.6147 29.8452L21.3455 25.576C20.2097 26.6727 18.3688 26.6727 17.233 25.5368C16.0972 24.401 16.0972 22.521 17.233 21.3852L21.3847 17.2335C22.5205 16.0977 24.4005 16.0977 25.5363 17.2335C26.6722 18.3693 26.6722 20.2493 25.5363 21.3852L25.4972 21.4243L29.7663 25.6935C33.7613 22.4818 38.618 20.3668 43.9838 19.7793V13.7085C42.378 13.6693 41.0855 12.3768 41.0855 10.771C41.1247 9.16516 42.4563 7.8335 44.0622 7.8335H49.9372C51.543 7.8335 52.8747 9.16516 52.8747 10.771C52.8747 12.3768 51.543 13.7085 49.9372 13.7085H49.898V19.7402C55.2638 20.2885 60.1597 22.4427 64.1547 25.6543L68.4238 21.3852C67.288 20.2493 67.3272 18.4085 68.463 17.2727C69.5988 16.1368 71.4789 16.1368 72.6147 17.2727L76.7663 21.4243C77.9022 22.5602 77.9022 24.4402 76.7663 25.576C75.6305 26.7118 73.7505 26.7118 72.6147 25.576L72.5755 25.5368L68.3064 29.7668C71.518 33.7618 73.6722 38.6577 74.2597 44.0627H80.2914C80.2914 42.4568 81.623 41.1252 83.2289 41.1252C84.8347 41.1252 86.1664 42.4568 86.1664 44.0627ZM66.583 47.0002C66.583 36.1902 57.8097 27.4168 46.9997 27.4168C36.1897 27.4168 27.4163 36.1902 27.4163 47.0002C27.4163 57.8102 36.1897 66.5835 46.9997 66.5835C57.8097 66.5835 66.583 57.8102 66.583 47.0002ZM46.9997 43.0835C44.8455 43.0835 43.083 44.846 43.083 47.0002C43.083 49.1543 44.8455 50.9168 46.9997 50.9168C49.1538 50.9168 50.9163 49.1543 50.9163 47.0002C50.9163 44.846 49.1538 43.0835 46.9997 43.0835ZM60.708 43.0835C58.5538 43.0835 56.7913 44.846 56.7913 47.0002C56.7913 49.1543 58.5538 50.9168 60.708 50.9168C62.8622 50.9168 64.6247 49.1543 64.6247 47.0002C64.6247 44.846 62.8622 43.0835 60.708 43.0835ZM53.8538 54.8335C51.6997 54.8335 49.9372 56.596 49.9372 58.7502C49.9372 60.9043 51.6997 62.6668 53.8538 62.6668C56.008 62.6668 57.7705 60.9043 57.7705 58.7502C57.7705 56.596 56.008 54.8335 53.8538 54.8335Z" fill="url(#paint0_linear)"/>
<defs>
<linearGradient id="paint0_linear" x1="-31.3337" y1="47.0197" x2="47.0388" y2="125.353" gradientUnits="userSpaceOnUse">
<stop stop-color="#B4B2F1"/>
<stop offset="1" stop-color="#7838FF"/>
</linearGradient>
</defs>
</svg>
