<svg width="34" height="34" viewBox="0 0 34 34" fill="none" xmlns="http://www.w3.org/2000/svg">
<path d="M30.9682 7.28177C31.1753 7.07405 31.1753 6.73777 30.9682 6.53058L30.2813 5.84367L28.1563 3.71867L27.4693 3.03177C27.2622 2.82405 26.9253 2.82405 26.7182 3.03177L24.9688 4.78117L29.2188 9.03117L30.9682 7.28177Z" fill="url(#paint0_linear)"/>
<path d="M30.9228 5.20253L31.8754 4.25L32.4066 2.65625L31.3441 1.59375L29.7504 2.125L28.7979 3.07753L28.9078 3.1875L30.9228 5.20253Z" fill="url(#paint1_linear)"/>
<path d="M29.2185 17C28.1979 15.9795 27.6247 14.5955 27.6247 13.1521V12.8785C27.6247 11.561 28.1071 10.2961 28.9666 9.30855L24.7028 5.04686L23.2993 6.45042C21.3066 8.44314 20.1872 11.1456 20.1872 13.9634V22.3125H11.6872V22.5903L9.48252 21.4471L9.9718 20.5041L10.4436 20.7485L14.3174 13.2796C14.8296 12.292 15.4979 11.3932 16.2963 10.6181C17.0948 9.84299 17.7631 8.94411 18.2752 7.95652L19.4583 5.67533C19.9986 4.63355 19.5922 3.35111 18.5504 2.81083C17.5086 2.27055 16.2262 2.67696 15.6854 3.71874L14.5023 5.99992C13.9902 6.98752 13.6401 8.05161 13.4664 9.15077C13.2926 10.2499 12.9431 11.3135 12.431 12.3016L8.55709 19.7705L9.02884 20.0154L8.53956 20.9583L6.18134 19.7354L5.69205 20.6784L8.05027 21.9013L7.56099 22.8443L3.78805 20.8871L3.29877 21.8306L7.07171 23.7878L6.58243 24.7307L2.80949 22.7736L2.32021 23.7166L6.09315 25.6737L5.60387 26.6172L1.83146 24.6606L1.34218 25.6036L4.77459 27.3838L0.987305 27.9241L1.13712 28.976L4.63965 28.476L4.02287 29.665L2.40096 29.844L2.5173 30.9001L4.06909 30.7296L4.82346 32.0965L5.75368 31.5828L4.9653 30.1548L5.58209 28.9659L7.19071 32.1167L8.13687 31.6333L6.39702 28.2258L9.82996 30.006L10.3192 29.0631L6.5463 27.1065L7.03559 26.163L10.8085 28.1201L11.2978 27.1771L7.52487 25.22L8.01415 24.2771L11.6872 26.1816V31.3437C11.6872 31.9308 12.1627 32.4062 12.7497 32.4062H30.8122C31.6925 32.4062 32.406 31.6928 32.406 30.8125V22.4416C32.406 20.9987 31.8327 19.6143 30.8122 18.5937L29.2185 17ZM16.494 4.73608C16.7325 4.27602 17.2988 4.09646 17.7589 4.33446C18.2189 4.57299 18.399 5.1393 18.16 5.59989V5.60042C17.9214 6.06049 17.3551 6.24005 16.8951 6.00152C16.4345 5.76299 16.2549 5.19667 16.494 4.73608ZM8.99324 22.39L11.3509 23.613L11.6872 22.9649V24.4375V24.9847L8.50396 23.3335L8.99324 22.39ZM30.281 28.6875C30.281 29.5678 29.5675 30.2812 28.6872 30.2812H23.906C23.0257 30.2812 22.3122 29.5678 22.3122 28.6875V19.125C22.3122 18.2447 23.0257 17.5312 23.906 17.5312H24.9685C25.8487 17.5312 26.5622 18.2447 26.5622 19.125V20.7187C26.5622 21.599 27.2757 22.3125 28.156 22.3125H28.6872C29.5675 22.3125 30.281 23.026 30.281 23.9062V28.6875Z" fill="url(#paint2_linear)"/>
<defs>
<linearGradient id="paint0_linear" x1="21.8914" y1="5.95357" x2="28.0465" y2="12.1084" gradientUnits="userSpaceOnUse">
<stop stop-color="#B4B2F1"/>
<stop offset="1" stop-color="#7838FF"/>
</linearGradient>
<linearGradient id="paint1_linear" x1="26.9935" y1="3.39814" x2="30.6022" y2="7.00692" gradientUnits="userSpaceOnUse">
<stop stop-color="#B4B2F1"/>
<stop offset="1" stop-color="#7838FF"/>
</linearGradient>
<linearGradient id="paint2_linear" x1="-14.722" y1="17.489" x2="15.0725" y2="48.8657" gradientUnits="userSpaceOnUse">
<stop stop-color="#B4B2F1"/>
<stop offset="1" stop-color="#7838FF"/>
</linearGradient>
</defs>
</svg>
