<svg width="19" height="37" viewBox="0 0 19 37" fill="none" xmlns="http://www.w3.org/2000/svg">
<path fill-rule="evenodd" clip-rule="evenodd" d="M18.7436 22.4372C18.7436 22.7721 18.4813 23.0436 18.1579 23.0436H17.5721V23.65H18.1579C18.4813 23.65 18.7436 23.9215 18.7436 24.2564V35.1718C18.7436 35.5067 18.4813 35.7782 18.1579 35.7782H17.5721V36.3846H16.4006V35.7782H2.34295V36.3846H1.17147V35.7782H0.585737C0.262264 35.7782 0 35.5067 0 35.1718V24.2564C0 23.9215 0.262264 23.65 0.585737 23.65H1.17147V23.0436H0.585737C0.262264 23.0436 0 22.7721 0 22.4372V0.60641C0 0.27152 0.262264 0 0.585737 0H18.1579C18.4813 0 18.7436 0.27152 18.7436 0.60641V22.4372ZM2.34271 17.5859C2.34183 16.8152 1.8728 16.1283 1.17124 15.8704V21.8308H2.34271V17.5859ZM16.4004 23.0435V23.6499H2.34271V23.0435H16.4004ZM2.34271 24.8626H1.17124V29.6102C1.8728 29.3523 2.34183 28.6654 2.34271 27.8947V24.8626Z" fill="url(#paint0_linear)"/>
<defs>
<linearGradient id="paint0_linear" x1="-9.37179" y1="18.1923" x2="20.2534" y2="33.4538" gradientUnits="userSpaceOnUse">
<stop stop-color="#B4B2F1"/>
<stop offset="1" stop-color="#7838FF"/>
</linearGradient>
</defs>
</svg>
