<svg width="37" height="40" viewBox="0 0 37 40" fill="none" xmlns="http://www.w3.org/2000/svg">
<path fill-rule="evenodd" clip-rule="evenodd" d="M9.77512 5.90539L10.7971 6.75124L12.3624 4.44803L11.0847 2.56775L12.0748 1.11383L11.0528 0.266602L9.48751 2.56706L10.7652 4.44803L9.77512 5.90539ZM6.4529 8.4426H11.5638V9.85212H6.4529V8.4426ZM9.64722 16.8997C9.64722 17.2889 9.36117 17.6045 9.00836 17.6045C8.65555 17.6045 8.3695 17.2889 8.3695 16.8997C8.3695 16.5105 8.65555 16.195 9.00836 16.195C9.36117 16.195 9.64722 16.5105 9.64722 16.8997ZM32.0075 24.6521H5.17517V34.5188H32.0075V24.6521ZM28.8131 27.4712V26.0616H27.5354V27.4712H28.8131ZM30.7297 28.1759V29.5855H29.452V28.1759H30.7297ZM29.452 26.0616V27.4712H30.7297V26.0616H29.452ZM28.8131 16.8997C28.8131 17.2889 28.5271 17.6045 28.1743 17.6045C27.8215 17.6045 27.5354 17.2889 27.5354 16.8997C27.5354 16.5105 27.8215 16.195 28.1743 16.195C28.5271 16.195 28.8131 16.5105 28.8131 16.8997ZM33.9241 38.0426H3.25858V39.4521H33.9241V38.0426ZM35.2018 21.8331H1.98085V36.6331H35.2018V21.8331ZM3.89745 35.9283H33.2852V23.2426H3.89745V35.9283ZM30.7297 8.4426H25.6188V9.85212H30.7297V8.4426ZM0.703125 11.2616H36.4795V12.6712H0.703125V11.2616ZM1.98085 14.0807H35.2018V20.4235H1.98085V14.0807ZM9.00836 19.014C7.94993 19.014 7.09177 18.0673 7.09177 16.8997C7.09177 15.7321 7.94993 14.7855 9.00836 14.7855C10.0668 14.7855 10.925 15.7321 10.925 16.8997C10.925 18.0673 10.0668 19.014 9.00836 19.014ZM26.2577 16.8997C26.2577 18.0673 27.1159 19.014 28.1743 19.014C29.2327 19.014 30.0909 18.0673 30.0909 16.8997C30.0909 15.7321 29.2327 14.7855 28.1743 14.7855C27.1159 14.7855 26.2577 15.7321 26.2577 16.8997ZM7.60273 6.75124L6.5808 5.90539L7.57091 4.44803L6.29319 2.56706L7.85853 0.266602L8.88046 1.11383L7.89035 2.56775L9.16808 4.44803L7.60273 6.75124ZM25.7467 5.90539L26.7687 6.75124L28.334 4.44803L27.0563 2.56775L28.0464 1.11383L27.0244 0.266602L25.4591 2.56706L26.7368 4.44803L25.7467 5.90539ZM29.963 6.75124L28.941 5.90539L29.9312 4.44803L28.6534 2.56706L30.2188 0.266602L31.2407 1.11383L30.2506 2.56775L31.5283 4.44803L29.963 6.75124Z" fill="url(#paint0_linear)"/>
<defs>
<linearGradient id="paint0_linear" x1="-17.1851" y1="19.8594" x2="21.8387" y2="55.4881" gradientUnits="userSpaceOnUse">
<stop stop-color="#B4B2F1"/>
<stop offset="1" stop-color="#7838FF"/>
</linearGradient>
</defs>
</svg>
