<svg width="25" height="30" viewBox="0 0 25 30" fill="none" xmlns="http://www.w3.org/2000/svg">
<path fill-rule="evenodd" clip-rule="evenodd" d="M15.0365 28.4193C16.3978 27.3352 17.7588 26.1104 19.0324 24.7659C22.747 20.845 25 16.7145 25 12.5C25 5.59644 19.4036 0 12.5 0C5.59644 0 0 5.59644 0 12.5C0 16.7145 2.253 20.845 5.96756 24.7659C7.24125 26.1104 8.60218 27.3352 9.96353 28.4193C10.4408 28.7993 10.8848 29.1351 11.2847 29.424C11.5285 29.6 11.7061 29.723 11.8066 29.7901C12.2265 30.07 12.7735 30.07 13.1934 29.7901C13.2939 29.723 13.4715 29.6 13.7153 29.424C14.1152 29.1351 14.5592 28.7993 15.0365 28.4193ZM17.2174 23.0468C16.0301 24.3 14.7544 25.4482 13.479 26.4638C13.1309 26.741 12.8027 26.9923 12.4998 27.216C12.1969 26.9923 11.8688 26.741 11.5207 26.4638C10.2453 25.4482 8.96953 24.3 7.78228 23.0468C4.46559 19.5459 2.49984 15.942 2.49984 12.5002C2.49984 6.9774 6.97699 2.50025 12.4998 2.50025C18.0227 2.50025 22.4998 6.9774 22.4998 12.5002C22.4998 15.942 20.5341 19.5459 17.2174 23.0468ZM12.5 17.4999C9.7386 17.4999 7.50003 15.2614 7.50003 12.4999C7.50003 9.7385 9.7386 7.49993 12.5 7.49993C15.2614 7.49993 17.5 9.7385 17.5 12.4999C17.5 15.2614 15.2614 17.4999 12.5 17.4999ZM15.0004 12.5003C15.0004 13.881 13.8811 15.0003 12.5004 15.0003C11.1197 15.0003 10.0004 13.881 10.0004 12.5003C10.0004 11.1196 11.1197 10.0003 12.5004 10.0003C13.8811 10.0003 15.0004 11.1196 15.0004 12.5003Z" fill="black"/>
<mask id="mask0" mask-type="alpha" maskUnits="userSpaceOnUse" x="0" y="0" width="25" height="30">
<path fill-rule="evenodd" clip-rule="evenodd" d="M15.0365 28.4193C16.3978 27.3352 17.7588 26.1104 19.0324 24.7659C22.747 20.845 25 16.7145 25 12.5C25 5.59644 19.4036 0 12.5 0C5.59644 0 0 5.59644 0 12.5C0 16.7145 2.253 20.845 5.96756 24.7659C7.24125 26.1104 8.60218 27.3352 9.96353 28.4193C10.4408 28.7993 10.8848 29.1351 11.2847 29.424C11.5285 29.6 11.7061 29.723 11.8066 29.7901C12.2265 30.07 12.7735 30.07 13.1934 29.7901C13.2939 29.723 13.4715 29.6 13.7153 29.424C14.1152 29.1351 14.5592 28.7993 15.0365 28.4193ZM17.2174 23.0468C16.0301 24.3 14.7544 25.4482 13.479 26.4638C13.1309 26.741 12.8027 26.9923 12.4998 27.216C12.1969 26.9923 11.8688 26.741 11.5207 26.4638C10.2453 25.4482 8.96953 24.3 7.78228 23.0468C4.46559 19.5459 2.49984 15.942 2.49984 12.5002C2.49984 6.9774 6.97699 2.50025 12.4998 2.50025C18.0227 2.50025 22.4998 6.9774 22.4998 12.5002C22.4998 15.942 20.5341 19.5459 17.2174 23.0468ZM12.5 17.4999C9.7386 17.4999 7.50003 15.2614 7.50003 12.4999C7.50003 9.7385 9.7386 7.49993 12.5 7.49993C15.2614 7.49993 17.5 9.7385 17.5 12.4999C17.5 15.2614 15.2614 17.4999 12.5 17.4999ZM15.0004 12.5003C15.0004 13.881 13.8811 15.0003 12.5004 15.0003C11.1197 15.0003 10.0004 13.881 10.0004 12.5003C10.0004 11.1196 11.1197 10.0003 12.5004 10.0003C13.8811 10.0003 15.0004 11.1196 15.0004 12.5003Z" fill="white"/>
</mask>
<g mask="url(#mask0)">
<rect x="-2.5" width="30" height="30" fill="url(#paint0_linear)"/>
</g>
<defs>
<linearGradient id="paint0_linear" x1="-17.5" y1="15" x2="12.5" y2="45" gradientUnits="userSpaceOnUse">
<stop stop-color="#B4B2F1"/>
<stop offset="1" stop-color="#7838FF"/>
</linearGradient>
</defs>
</svg>
