<svg width="31" height="31" viewBox="0 0 31 31" fill="none" xmlns="http://www.w3.org/2000/svg">
<path d="M26.7895 10.9863C25.756 10.9863 24.9183 11.8241 24.9183 12.8575V21.8777H6.08127V12.8575C6.08127 11.8241 5.24348 10.9863 4.21007 10.9863C3.17659 10.9863 2.33887 11.8241 2.33887 12.8575V26.6057C2.33887 27.3095 2.72758 27.9222 3.30187 28.2417V31.0002H5.11827V28.4769H25.8814V31.0002H27.6978V28.2417C28.2721 27.9222 28.6608 27.3095 28.6608 26.6057V12.8575C28.6607 11.8241 27.8229 10.9863 26.7895 10.9863Z" fill="url(#paint0_linear)"/>
<path d="M7.89746 17.2266H23.1017V20.0608H7.89746V17.2266Z" fill="url(#paint1_linear)"/>
<path d="M7.89763 12.8574V15.4105H23.1019V12.8574C23.1019 10.824 24.7561 9.16976 26.7895 9.16976V1.8712C26.7895 0.837787 25.9517 0 24.9182 0H6.08122C5.04775 0 4.20996 0.837787 4.20996 1.8712V9.1697C6.24337 9.16976 7.89763 10.824 7.89763 12.8574Z" fill="url(#paint2_linear)"/>
<defs>
<linearGradient id="paint0_linear" x1="-10.8221" y1="20.9932" x2="8.46338" y2="46.3572" gradientUnits="userSpaceOnUse">
<stop stop-color="#B4B2F1"/>
<stop offset="1" stop-color="#7838FF"/>
</linearGradient>
<linearGradient id="paint1_linear" x1="0.295347" y1="18.6437" x2="1.31654" y2="24.1218" gradientUnits="userSpaceOnUse">
<stop stop-color="#B4B2F1"/>
<stop offset="1" stop-color="#7838FF"/>
</linearGradient>
<linearGradient id="paint2_linear" x1="-7.07979" y1="7.70526" x2="7.27091" y2="28.7319" gradientUnits="userSpaceOnUse">
<stop stop-color="#B4B2F1"/>
<stop offset="1" stop-color="#7838FF"/>
</linearGradient>
</defs>
</svg>
