<svg width="37" height="24" viewBox="0 0 37 24" fill="none" xmlns="http://www.w3.org/2000/svg">
<path fill-rule="evenodd" clip-rule="evenodd" d="M29.5709 23.377H36.8804V0.289062H29.5709V23.377ZM0.633789 23.377H28.4402V0.289073H0.633789V23.377Z" fill="url(#paint0_linear)"/>
<path d="M26.439 4.6665H23.442C23.1276 4.6665 22.8729 4.91694 22.8729 5.2258C22.8729 5.53465 23.1276 5.78509 23.442 5.78509H25.87V18.9838H3.9419V5.78509H20.7104C21.0247 5.78509 21.2795 5.53465 21.2795 5.2258C21.2795 4.91694 21.0247 4.6665 20.7104 4.6665H3.3728C3.05846 4.6665 2.80371 4.91694 2.80371 5.2258V19.5431C2.80371 19.852 3.05846 20.1024 3.3728 20.1024H26.439C26.7534 20.1024 27.0081 19.852 27.0081 19.5431V5.2258C27.0081 4.91694 26.7534 4.6665 26.439 4.6665Z" fill="white"/>
<path fill-rule="evenodd" clip-rule="evenodd" d="M33.0598 15.251C31.8465 15.251 30.8594 16.2402 30.8594 17.4561C30.8594 18.672 31.8465 19.6612 33.0598 19.6612C34.2731 19.6612 35.2602 18.672 35.2602 17.4561C35.2601 16.2402 34.2731 15.251 33.0598 15.251ZM31.9067 17.4563C31.9067 16.8194 32.4238 16.3013 33.0592 16.3013C33.1831 16.3013 33.3023 16.3215 33.4143 16.358L31.9632 17.8122C31.9269 17.6999 31.9067 17.5805 31.9067 17.4563ZM32.7038 18.5543C32.8158 18.5908 32.935 18.611 33.0589 18.611C33.6944 18.611 34.2114 18.0929 34.2115 17.4559C34.2115 17.3317 34.1913 17.2123 34.1549 17.1001L32.7038 18.5543Z" fill="white"/>
<path fill-rule="evenodd" clip-rule="evenodd" d="M33.0598 10.1792C31.8465 10.1792 30.8594 11.1684 30.8594 12.3843C30.8594 13.6002 31.8465 14.5895 33.0598 14.5895C34.2731 14.5895 35.2602 13.6002 35.2602 12.3843C35.2602 11.1684 34.2731 10.1792 33.0598 10.1792ZM31.9067 12.3845C31.9067 11.7476 32.4238 11.2295 33.0592 11.2295C33.1831 11.2295 33.3023 11.2498 33.4143 11.2862L31.9632 12.7404C31.9269 12.6282 31.9067 12.5087 31.9067 12.3845ZM32.7038 13.4825C32.8158 13.519 32.935 13.5393 33.0589 13.5393C33.6944 13.5393 34.2114 13.0211 34.2115 12.3842C34.2115 12.2599 34.1913 12.1405 34.1549 12.0283L32.7038 13.4825Z" fill="white"/>
<ellipse cx="31.9603" cy="4.11525" rx="0.550101" ry="0.551282" fill="white"/>
<ellipse cx="34.1605" cy="4.11525" rx="0.550101" ry="0.551282" fill="white"/>
<ellipse cx="31.9603" cy="6.32032" rx="0.550101" ry="0.551282" fill="white"/>
<ellipse cx="34.1605" cy="6.32032" rx="0.550101" ry="0.551282" fill="white"/>
<ellipse cx="31.9603" cy="8.5254" rx="0.550101" ry="0.551282" fill="white"/>
<ellipse cx="34.1605" cy="8.5254" rx="0.550101" ry="0.551282" fill="white"/>
<path d="M15.8066 14.673C15.9513 14.673 16.0959 14.6177 16.2063 14.5068L15.8066 14.673Z" fill="url(#paint1_linear)"/>
<defs>
<linearGradient id="paint0_linear" x1="-17.4895" y1="11.833" x2="3.43382" y2="44.6814" gradientUnits="userSpaceOnUse">
<stop stop-color="#B4B2F1"/>
<stop offset="1" stop-color="#7838FF"/>
</linearGradient>
<linearGradient id="paint1_linear" x1="15.6068" y1="14.5899" x2="15.7246" y2="14.8733" gradientUnits="userSpaceOnUse">
<stop stop-color="#B4B2F1"/>
<stop offset="1" stop-color="#7838FF"/>
</linearGradient>
</defs>
</svg>
