<svg width="31" height="36" viewBox="0 0 31 36" fill="none" xmlns="http://www.w3.org/2000/svg">
<path d="M18.2858 5.03406C18.3406 5.04576 18.3954 5.05137 18.4494 5.05137C18.7884 5.05137 19.0945 4.83021 19.1721 4.50442L19.8891 1.49617C19.9791 1.11859 19.7283 0.743541 19.3287 0.658468C18.9292 0.573184 18.5324 0.810534 18.4424 1.18811L17.7253 4.19636C17.6354 4.57394 17.8863 4.94899 18.2858 5.03406Z" fill="url(#paint0_linear)"/>
<path d="M15.2069 4.69206C15.3513 4.92427 15.5975 5.05137 15.8491 5.05137C15.9877 5.05137 16.128 5.01273 16.2537 4.93199C16.6079 4.7044 16.7137 4.22802 16.4898 3.86794L14.7069 1.00039C14.4831 0.640313 14.0144 0.533036 13.6601 0.760391C13.306 0.987978 13.2002 1.46436 13.4241 1.82444L15.2069 4.69206Z" fill="url(#paint1_linear)"/>
<path d="M20.6782 6.15388C20.8188 6.15388 20.9609 6.11582 21.0886 6.03618L23.9508 4.24842C24.3098 4.02411 24.4169 3.55475 24.1898 3.20006C23.9629 2.84544 23.4877 2.73959 23.1286 2.9639L20.2664 4.75159C19.9074 4.97589 19.8003 5.44525 20.0274 5.79995C20.1737 6.02866 20.4232 6.15388 20.6782 6.15388Z" fill="url(#paint2_linear)"/>
<path fill-rule="evenodd" clip-rule="evenodd" d="M25.2609 28.5898L29.6789 30.4884C30.4651 30.8254 30.9587 31.6068 30.9063 32.4327C30.8539 33.2587 30.2628 33.9318 29.3636 34.1891L29.3519 34.1923L23.1755 35.8444L23.1637 35.8475C22.9593 35.8983 22.7578 35.9231 22.5632 35.9231C21.8941 35.9231 21.3049 35.6304 20.9492 35.097C20.4897 34.4081 20.5254 33.4842 21.038 32.798L23.913 28.9501L22.4967 23.6729C22.0942 23.7395 21.6846 23.7727 21.2736 23.7727C19.8415 23.7727 18.3923 23.3734 17.1656 22.611C15.907 21.8287 14.9721 20.722 14.4558 19.4254C14.349 19.508 14.2395 19.5883 14.1267 19.6657C12.8416 20.5479 11.296 21.0122 9.75659 21.0123C9.34152 21.0123 8.92701 20.9782 8.51808 20.9097L7.10186 26.1865L9.97684 30.0342C10.4892 30.7205 10.5241 31.6444 10.0639 32.3333C9.70846 32.8657 9.1198 33.1578 8.45158 33.1578C8.25613 33.1578 8.0539 33.1328 7.8486 33.0815L7.83757 33.0786L1.66115 31.4285L1.649 31.4251C0.751516 31.1679 0.161181 30.4955 0.108371 29.6704C0.055422 28.8442 0.54866 28.0616 1.33563 27.7228L5.75403 25.8259L7.17032 20.5488C5.34197 19.8668 3.78869 18.457 2.93655 16.6729C2.07972 14.879 2.04465 12.9149 2.83777 11.1426L5.87684 4.36081C6.01675 4.04855 6.36344 3.88397 6.69434 3.9726L9.03039 4.59766C9.4025 4.69729 9.62331 5.07902 9.52356 5.45045C9.42381 5.82196 9.04108 6.04231 8.66911 5.94268L6.90767 5.47141L4.30023 11.29C5.86189 12.1363 8.17168 12.1211 9.62485 11.1903C11.4185 10.0415 14.0197 9.94467 16.001 10.8514L16.2992 7.97967L14.6837 7.53534C14.3123 7.43321 14.0942 7.04987 14.1965 6.67914C14.2988 6.3084 14.683 6.0907 15.0544 6.1929L17.2394 6.79387C17.5681 6.88424 17.7832 7.19845 17.748 7.53688L17.6456 8.52307L24.3207 6.73832C24.6516 6.64976 24.9982 6.81434 25.1381 7.12667L28.175 13.9062C28.1917 13.9433 28.2345 14.0432 28.2397 14.056C28.9663 15.7898 28.9103 17.6947 28.077 19.4388C27.225 21.2223 25.6725 22.6312 23.8445 23.3127L25.2609 28.5898ZM24.1079 8.2373L17.4924 10.0061L17.1764 13.0487C18.6966 12.899 20.2461 13.2217 21.3891 13.9545C22.8434 14.886 25.153 14.9016 26.714 14.0552L24.1079 8.2373Z" fill="url(#paint3_linear)"/>
<path d="M11.6573 7.25637C11.9607 7.25637 12.2066 7.00959 12.2066 6.70509C12.2066 6.40065 11.9607 6.15381 11.6573 6.15381H11.6542C11.3508 6.15381 11.1064 6.40059 11.1064 6.70509C11.1065 7.00959 11.354 7.25637 11.6573 7.25637Z" fill="url(#paint4_linear)"/>
<defs>
<linearGradient id="paint0_linear" x1="16.6068" y1="2.84624" x2="20.1305" y2="4.6043" gradientUnits="userSpaceOnUse">
<stop stop-color="#B4B2F1"/>
<stop offset="1" stop-color="#7838FF"/>
</linearGradient>
<linearGradient id="paint1_linear" x1="11.6563" y1="2.84624" x2="15.8876" y2="6.01291" gradientUnits="userSpaceOnUse">
<stop stop-color="#B4B2F1"/>
<stop offset="1" stop-color="#7838FF"/>
</linearGradient>
<linearGradient id="paint2_linear" x1="17.7078" y1="4.50004" x2="20.8851" y2="8.72734" gradientUnits="userSpaceOnUse">
<stop stop-color="#B4B2F1"/>
<stop offset="1" stop-color="#7838FF"/>
</linearGradient>
<linearGradient id="paint3_linear" x1="-15.2983" y1="19.9359" x2="16.6539" y2="50.7202" gradientUnits="userSpaceOnUse">
<stop stop-color="#B4B2F1"/>
<stop offset="1" stop-color="#7838FF"/>
</linearGradient>
<linearGradient id="paint4_linear" x1="10.5563" y1="6.70509" x2="11.6589" y2="7.80529" gradientUnits="userSpaceOnUse">
<stop stop-color="#B4B2F1"/>
<stop offset="1" stop-color="#7838FF"/>
</linearGradient>
</defs>
</svg>
