<svg width="81" height="81" viewBox="0 0 81 81" fill="none" xmlns="http://www.w3.org/2000/svg">
<rect width="81" height="81" rx="40" fill="url(#paint0_linear)"/>
<path d="M31.535 26.5833C31.65 28.2892 31.9375 29.9567 32.3975 31.5475L30.0975 33.8475C29.3117 31.5475 28.8133 29.1133 28.6408 26.5833H31.535ZM50.4333 49.6217C52.0625 50.0817 53.73 50.3692 55.4167 50.4842V53.34C52.8867 53.1675 50.4525 52.6692 48.1333 51.9025L50.4333 49.6217ZM33.375 22.75H26.6667C25.6125 22.75 24.75 23.6125 24.75 24.6667C24.75 42.6642 39.3358 57.25 57.3333 57.25C58.3875 57.25 59.25 56.3875 59.25 55.3333V48.6442C59.25 47.59 58.3875 46.7275 57.3333 46.7275C54.9567 46.7275 52.6375 46.3442 50.4908 45.635C50.2992 45.5583 50.0883 45.5392 49.8967 45.5392C49.3983 45.5392 48.9192 45.7308 48.5358 46.095L44.3192 50.3117C38.895 47.5325 34.4483 43.105 31.6883 37.6808L35.905 33.4642C36.4417 32.9275 36.595 32.18 36.3842 31.5092C35.675 29.3625 35.2917 27.0625 35.2917 24.6667C35.2917 23.6125 34.4292 22.75 33.375 22.75Z" fill="white"/>
<defs>
<linearGradient id="paint0_linear" x1="-40.5" y1="40.5" x2="40.5" y2="121.5" gradientUnits="userSpaceOnUse">
<stop stop-color="#B4B2F1"/>
<stop offset="1" stop-color="#7838FF"/>
</linearGradient>
</defs>
</svg>
