<svg width="82" height="81" viewBox="0 0 82 81" fill="none" xmlns="http://www.w3.org/2000/svg">
<rect x="0.556641" width="81" height="81" rx="40" fill="url(#paint0_linear)"/>
<path d="M57.666 27.5001H53.1244C53.3535 26.8542 53.4994 26.1459 53.4994 25.4167C53.4994 21.9584 50.7077 19.1667 47.2494 19.1667C45.0619 19.1667 43.166 20.2917 42.041 21.9792L40.9994 23.3751L39.9577 21.9584C38.8327 20.2917 36.9369 19.1667 34.7494 19.1667C31.291 19.1667 28.4994 21.9584 28.4994 25.4167C28.4994 26.1459 28.6452 26.8542 28.8744 27.5001H24.3327C22.0202 27.5001 20.1868 29.3542 20.1868 31.6667L20.166 54.5834C20.166 56.8959 22.0202 58.7501 24.3327 58.7501H57.666C59.9785 58.7501 61.8327 56.8959 61.8327 54.5834V31.6667C61.8327 29.3542 59.9785 27.5001 57.666 27.5001ZM47.2494 23.3334C48.3952 23.3334 49.3327 24.2709 49.3327 25.4167C49.3327 26.5626 48.3952 27.5001 47.2494 27.5001C46.1035 27.5001 45.166 26.5626 45.166 25.4167C45.166 24.2709 46.1035 23.3334 47.2494 23.3334ZM34.7494 23.3334C35.8952 23.3334 36.8327 24.2709 36.8327 25.4167C36.8327 26.5626 35.8952 27.5001 34.7494 27.5001C33.6035 27.5001 32.666 26.5626 32.666 25.4167C32.666 24.2709 33.6035 23.3334 34.7494 23.3334ZM57.666 54.5834H24.3327V50.4167H57.666V54.5834ZM57.666 44.1667H24.3327V31.6667H34.916L30.5827 37.5626L33.9577 40.0001L40.9994 30.4167L48.041 40.0001L51.416 37.5626L47.0827 31.6667H57.666V44.1667Z" fill="white"/>
<defs>
<linearGradient id="paint0_linear" x1="-39.9434" y1="40.5" x2="41.0566" y2="121.5" gradientUnits="userSpaceOnUse">
<stop stop-color="#B4B2F1"/>
<stop offset="1" stop-color="#7838FF"/>
</linearGradient>
</defs>
</svg>
