<svg width="47" height="47" viewBox="0 0 47 47" fill="none" xmlns="http://www.w3.org/2000/svg">
<path d="M23.4997 7.8335V1.9585L15.6663 9.79183L23.4997 17.6252V11.7502C29.9818 11.7502 35.2497 17.0181 35.2497 23.5002C35.2497 25.4781 34.7601 27.3581 33.8788 28.9835L36.738 31.8427C38.2655 29.4339 39.1663 26.5747 39.1663 23.5002C39.1663 14.8443 32.1555 7.8335 23.4997 7.8335ZM23.4997 35.2502C17.0176 35.2502 11.7497 29.9822 11.7497 23.5002C11.7497 21.5222 12.2393 19.6422 13.1205 18.0168L10.2613 15.1577C8.73384 17.5664 7.83301 20.4256 7.83301 23.5002C7.83301 32.156 14.8438 39.1668 23.4997 39.1668V45.0418L31.333 37.2085L23.4997 29.3752V35.2502Z" fill="url(#paint0_linear)"/>
<defs>
<linearGradient id="paint0_linear" x1="-7.83366" y1="23.5002" x2="33.1537" y2="53.3092" gradientUnits="userSpaceOnUse">
<stop stop-color="#B4B2F1"/>
<stop offset="1" stop-color="#7838FF"/>
</linearGradient>
</defs>
</svg>
