<svg width="34" height="34" viewBox="0 0 34 34" fill="none" xmlns="http://www.w3.org/2000/svg">
<path d="M27.5259 18.3885C27.5825 17.9352 27.625 17.4818 27.625 17.0002C27.625 16.5185 27.5825 16.0652 27.5259 15.6118L30.515 13.2743C30.7842 13.0618 30.855 12.6793 30.685 12.3677L27.8517 7.466C27.7242 7.23933 27.4833 7.11183 27.2283 7.11183C27.1433 7.11183 27.0583 7.126 26.9875 7.15433L23.46 8.571C22.7233 8.00433 21.93 7.53683 21.0658 7.18266L20.5275 3.4285C20.485 3.0885 20.1875 2.8335 19.8333 2.8335H14.1667C13.8125 2.8335 13.515 3.0885 13.4725 3.4285L12.9342 7.18266C12.07 7.53683 11.2767 8.0185 10.54 8.571L7.01252 7.15433C6.92752 7.126 6.84252 7.11183 6.75752 7.11183C6.51668 7.11183 6.27585 7.23933 6.14835 7.466L3.31502 12.3677C3.13085 12.6793 3.21585 13.0618 3.48502 13.2743L6.47418 15.6118C6.41752 16.0652 6.37502 16.5327 6.37502 17.0002C6.37502 17.4677 6.41752 17.9352 6.47418 18.3885L3.48502 20.726C3.21585 20.9385 3.14502 21.321 3.31502 21.6327L6.14835 26.5343C6.27585 26.761 6.51668 26.8885 6.77168 26.8885C6.85668 26.8885 6.94168 26.8743 7.01252 26.846L10.54 25.4293C11.2767 25.996 12.07 26.4635 12.9342 26.8177L13.4725 30.5718C13.515 30.9118 13.8125 31.1668 14.1667 31.1668H19.8333C20.1875 31.1668 20.485 30.9118 20.5275 30.5718L21.0658 26.8177C21.93 26.4635 22.7233 25.9818 23.46 25.4293L26.9875 26.846C27.0725 26.8743 27.1575 26.8885 27.2425 26.8885C27.4833 26.8885 27.7242 26.761 27.8517 26.5343L30.685 21.6327C30.855 21.321 30.7842 20.9385 30.515 20.726L27.5259 18.3885ZM24.7209 15.966C24.7775 16.4052 24.7917 16.7027 24.7917 17.0002C24.7917 17.2977 24.7634 17.6093 24.7209 18.0343L24.5225 19.6352L25.7834 20.6268L27.3134 21.8168L26.3217 23.531L24.5225 22.8085L23.0492 22.2135L21.7742 23.1768C21.165 23.6302 20.5842 23.9702 20.0033 24.211L18.5017 24.8202L18.275 26.421L17.9917 28.3335H16.0084L15.7392 26.421L15.5125 24.8202L14.0108 24.211C13.4017 23.956 12.835 23.6302 12.2683 23.2052L10.9792 22.2135L9.47752 22.8227L7.67835 23.5452L6.68668 21.831L8.21668 20.641L9.47752 19.6493L9.27918 18.0485C9.23668 17.6093 9.20835 17.2835 9.20835 17.0002C9.20835 16.7168 9.23668 16.391 9.27918 15.966L9.47752 14.3652L8.21668 13.3735L6.68668 12.1835L7.67835 10.4693L9.47752 11.1918L10.9508 11.7868L12.2259 10.8235C12.835 10.3702 13.4158 10.0302 13.9967 9.78933L15.4983 9.18016L15.725 7.57933L16.0084 5.66683H17.9775L18.2467 7.57933L18.4733 9.18016L19.975 9.78933C20.5842 10.0443 21.1509 10.3702 21.7175 10.7952L23.0067 11.7868L24.5083 11.1777L26.3075 10.4552L27.2992 12.1693L25.7834 13.3735L24.5225 14.3652L24.7209 15.966ZM17 11.3335C13.8692 11.3335 11.3333 13.8693 11.3333 17.0002C11.3333 20.131 13.8692 22.6668 17 22.6668C20.1308 22.6668 22.6667 20.131 22.6667 17.0002C22.6667 13.8693 20.1308 11.3335 17 11.3335ZM17 19.8335C15.4417 19.8335 14.1667 18.5585 14.1667 17.0002C14.1667 15.4418 15.4417 14.1668 17 14.1668C18.5584 14.1668 19.8333 15.4418 19.8333 17.0002C19.8333 18.5585 18.5584 19.8335 17 19.8335Z" fill="url(#paint0_linear)"/>
<defs>
<linearGradient id="paint0_linear" x1="-10.5633" y1="17.0002" x2="17.7592" y2="44.5498" gradientUnits="userSpaceOnUse">
<stop stop-color="#B4B2F1"/>
<stop offset="1" stop-color="#7838FF"/>
</linearGradient>
</defs>
</svg>
