<svg width="31" height="31" viewBox="0 0 31 31" fill="none" xmlns="http://www.w3.org/2000/svg">
<path d="M27.125 9.40333V6.45833C27.125 5.0375 25.9625 3.875 24.5417 3.875H6.45833C5.02458 3.875 3.875 5.0375 3.875 6.45833V24.5417C3.875 25.9625 5.02458 27.125 6.45833 27.125H24.5417C25.9625 27.125 27.125 25.9625 27.125 24.5417V21.5967C27.8871 21.1446 28.4167 20.3308 28.4167 19.375V11.625C28.4167 10.6692 27.8871 9.85542 27.125 9.40333ZM25.8333 11.625V19.375H16.7917V11.625H25.8333ZM6.45833 24.5417V6.45833H24.5417V9.04167H16.7917C15.3708 9.04167 14.2083 10.2042 14.2083 11.625V19.375C14.2083 20.7958 15.3708 21.9583 16.7917 21.9583H24.5417V24.5417H6.45833Z" fill="url(#paint0_linear)"/>
<path d="M20.666 17.4375C21.7361 17.4375 22.6035 16.5701 22.6035 15.5C22.6035 14.4299 21.7361 13.5625 20.666 13.5625C19.596 13.5625 18.7285 14.4299 18.7285 15.5C18.7285 16.5701 19.596 17.4375 20.666 17.4375Z" fill="url(#paint1_linear)"/>
<defs>
<linearGradient id="paint0_linear" x1="-8.39583" y1="15.5" x2="14.8202" y2="40.0058" gradientUnits="userSpaceOnUse">
<stop stop-color="#B4B2F1"/>
<stop offset="1" stop-color="#7838FF"/>
</linearGradient>
<linearGradient id="paint1_linear" x1="16.791" y1="15.5" x2="20.666" y2="19.375" gradientUnits="userSpaceOnUse">
<stop stop-color="#B4B2F1"/>
<stop offset="1" stop-color="#7838FF"/>
</linearGradient>
</defs>
</svg>
